<svg xmlns="http://www.w3.org/2000/svg" width="256" height="256" viewBox="0 0 256 256">
  <defs>
    <linearGradient id="bg" x1="44" y1="30" x2="214" y2="226" gradientUnits="userSpaceOnUse">
      <stop offset="0" stop-color="#58a6ff"/>
      <stop offset="0.52" stop-color="#3b82f6"/>
      <stop offset="1" stop-color="#8b5cf6"/>
    </linearGradient>
    <linearGradient id="box" x1="66" y1="69" x2="191" y2="198" gradientUnits="userSpaceOnUse">
      <stop offset="0" stop-color="#f8fafc"/>
      <stop offset="1" stop-color="#dbeafe"/>
    </linearGradient>
    <filter id="shadow" x="-20%" y="-20%" width="140%" height="140%">
      <feDropShadow dx="0" dy="12" stdDeviation="12" flood-color="#020617" flood-opacity="0.30"/>
    </filter>
  </defs>
  <rect width="256" height="256" rx="58" fill="#0b1220"/>
  <circle cx="198" cy="58" r="18" fill="#67e8f9" opacity="0.95"/>
  <circle cx="54" cy="204" r="12" fill="#a78bfa" opacity="0.85"/>
  <path d="M54 83c0-15.5 12.5-28 28-28h92c15.5 0 28 12.5 28 28v89c0 15.5-12.5 28-28 28H82c-15.5 0-28-12.5-28-28V83Z" fill="url(#bg)" filter="url(#shadow)"/>
  <path d="M79 83h98c5.5 0 10 4.5 10 10v76c0 5.5-4.5 10-10 10H79c-5.5 0-10-4.5-10-10V93c0-5.5 4.5-10 10-10Z" fill="url(#box)"/>
  <path d="M87 103h82M87 124h82M87 145h50" stroke="#93a4b8" stroke-width="10" stroke-linecap="round"/>
  <path d="M84 80v104" stroke="#1d4ed8" stroke-width="10" stroke-linecap="round" opacity="0.92"/>
  <path d="M82 101h18M82 125h18M82 149h18" stroke="#f8fafc" stroke-width="5" stroke-linecap="round"/>
  <path d="M150 166l20-35 20 35h-13v25h-14v-25h-13Z" fill="#0f172a"/>
  <path d="M55 50l8 17 18 8-18 8-8 18-8-18-18-8 18-8 8-17Z" fill="#bfdbfe" opacity="0.95"/>
</svg>
